<svg width="49" height="54" viewBox="0 0 49 54" fill="none" xmlns="http://www.w3.org/2000/svg">
<path d="M5.39613 31.7988C4.94424 31.8003 4.50119 31.673 4.11844 31.4316C3.7357 31.1902 3.42899 30.8447 3.23393 30.4351C3.03887 30.0255 2.96347 29.5687 3.0165 29.1178C3.06953 28.6669 3.24881 28.2404 3.5335 27.8878L27.1745 3.41414C27.3519 3.20847 27.5935 3.06949 27.8598 3.02C28.1262 2.97052 28.4013 3.01348 28.6401 3.14182C28.8789 3.27017 29.0672 3.47628 29.1741 3.72632C29.2809 3.97636 29.3 4.25548 29.2282 4.51786L24.6433 18.9621C24.5081 19.3257 24.4627 19.7167 24.511 20.1018C24.5592 20.4869 24.6998 20.8544 24.9205 21.1729C25.1412 21.4914 25.4355 21.7514 25.7782 21.9305C26.1209 22.1096 26.5017 22.2025 26.888 22.2013H43.6039C44.0558 22.1997 44.4988 22.327 44.8816 22.5684C45.2643 22.8098 45.571 23.1553 45.7661 23.5649C45.9611 23.9745 46.0365 24.4313 45.9835 24.8822C45.9305 25.3331 45.7512 25.7596 45.4665 26.1122L21.8255 50.5859C21.6481 50.7915 21.4065 50.9305 21.1402 50.98C20.8738 51.0295 20.5987 50.9865 20.3599 50.8582C20.1211 50.7298 19.9328 50.5237 19.8259 50.2737C19.7191 50.0236 19.7 49.7445 19.7718 49.4821L24.3567 35.0379C24.4919 34.6743 24.5373 34.2833 24.489 33.8982C24.4408 33.5131 24.3002 33.1456 24.0795 32.8271C23.8588 32.5086 23.5645 32.2486 23.2218 32.0695C22.8791 31.8904 22.4983 31.7975 22.112 31.7988H5.39613Z" stroke="#4076B9" stroke-width="6" stroke-linecap="round" stroke-linejoin="round"/>
</svg>
