<svg width="209" height="62" viewBox="0 0 209 62" fill="none" xmlns="http://www.w3.org/2000/svg">
<path d="M83.264 49H57.872V42.52L74.384 21.976H58.688V15.496H82.88V21.976L66.32 42.52H83.264V49ZM101.194 44.776H100.954C100.73 45.416 100.426 46.024 100.042 46.6C99.6899 47.176 99.2259 47.688 98.6499 48.136C98.0739 48.584 97.3859 48.936 96.5859 49.192C95.8179 49.448 94.9219 49.576 93.8979 49.576C91.3059 49.576 89.3379 48.728 87.9939 47.032C86.6819 45.304 86.0259 42.84 86.0259 39.64V23.8H93.1299V39.016C93.1299 40.552 93.4019 41.736 93.9459 42.568C94.4899 43.4 95.4179 43.816 96.7299 43.816C97.2739 43.816 97.8179 43.736 98.3619 43.576C98.9059 43.416 99.3859 43.192 99.8019 42.904C100.218 42.584 100.554 42.2 100.81 41.752C101.066 41.304 101.194 40.776 101.194 40.168V23.8H108.298V49H101.194V44.776ZM112.988 49V23.8H120.092V28.072H120.38C120.828 26.76 121.612 25.624 122.732 24.664C123.852 23.704 125.404 23.224 127.388 23.224C129.98 23.224 131.932 24.088 133.244 25.816C134.588 27.544 135.26 30.008 135.26 33.208V49H128.156V33.784C128.156 32.152 127.9 30.952 127.388 30.184C126.876 29.384 125.964 28.984 124.652 28.984C124.076 28.984 123.516 29.064 122.972 29.224C122.428 29.352 121.932 29.576 121.484 29.896C121.068 30.216 120.732 30.616 120.476 31.096C120.22 31.544 120.092 32.072 120.092 32.68V49H112.988ZM155.117 44.776H154.877C154.685 45.448 154.381 46.088 153.965 46.696C153.549 47.272 153.037 47.784 152.429 48.232C151.853 48.648 151.181 48.968 150.413 49.192C149.677 49.448 148.909 49.576 148.109 49.576C144.909 49.576 142.493 48.456 140.861 46.216C139.229 43.944 138.413 40.664 138.413 36.376C138.413 32.088 139.229 28.824 140.861 26.584C142.493 24.344 144.909 23.224 148.109 23.224C149.741 23.224 151.181 23.672 152.429 24.568C153.709 25.464 154.525 26.616 154.877 28.024H155.117V13.48H162.221V49H155.117V44.776ZM150.461 43.816C151.805 43.816 152.909 43.496 153.773 42.856C154.669 42.184 155.117 41.272 155.117 40.12V32.68C155.117 31.528 154.669 30.632 153.773 29.992C152.909 29.32 151.805 28.984 150.461 28.984C149.117 28.984 147.997 29.464 147.101 30.424C146.237 31.352 145.805 32.616 145.805 34.216V38.584C145.805 40.184 146.237 41.464 147.101 42.424C147.997 43.352 149.117 43.816 150.461 43.816ZM177.457 49.576C175.537 49.576 173.825 49.272 172.321 48.664C170.816 48.024 169.536 47.144 168.48 46.024C167.456 44.872 166.672 43.48 166.128 41.848C165.616 40.216 165.36 38.392 165.36 36.376C165.36 34.392 165.616 32.6 166.128 31C166.64 29.368 167.392 27.976 168.385 26.824C169.409 25.672 170.657 24.792 172.128 24.184C173.6 23.544 175.28 23.224 177.168 23.224C179.248 23.224 181.024 23.576 182.497 24.28C184.001 24.984 185.217 25.928 186.145 27.112C187.105 28.296 187.793 29.672 188.209 31.24C188.657 32.776 188.881 34.392 188.881 36.088V38.2H172.705V38.584C172.705 40.248 173.153 41.576 174.049 42.568C174.944 43.528 176.352 44.008 178.273 44.008C179.745 44.008 180.945 43.72 181.873 43.144C182.801 42.536 183.665 41.816 184.465 40.984L188.017 45.4C186.897 46.712 185.425 47.736 183.601 48.472C181.809 49.208 179.761 49.576 177.457 49.576ZM177.313 28.456C175.873 28.456 174.737 28.936 173.905 29.896C173.105 30.824 172.705 32.072 172.705 33.64V34.024H181.537V33.592C181.537 32.056 181.185 30.824 180.481 29.896C179.809 28.936 178.753 28.456 177.313 28.456ZM191.978 49V23.8H199.082V29.272H199.322C199.45 28.568 199.674 27.896 199.994 27.256C200.314 26.584 200.73 25.992 201.242 25.48C201.786 24.968 202.426 24.568 203.162 24.28C203.898 23.96 204.762 23.8 205.754 23.8H207.002V30.424H205.226C203.146 30.424 201.594 30.696 200.57 31.24C199.578 31.784 199.082 32.792 199.082 34.264V49H191.978Z" fill="#4076B9"/>
<path d="M5.39613 35.7988C4.94424 35.8003 4.50119 35.673 4.11844 35.4316C3.7357 35.1902 3.42899 34.8447 3.23393 34.4351C3.03887 34.0255 2.96347 33.5687 3.0165 33.1178C3.06953 32.6669 3.24881 32.2404 3.5335 31.8878L27.1745 7.41414C27.3519 7.20847 27.5935 7.06949 27.8598 7.02C28.1262 6.97052 28.4013 7.01348 28.6401 7.14182C28.8789 7.27017 29.0672 7.47628 29.1741 7.72632C29.2809 7.97636 29.3 8.25548 29.2282 8.51786L24.6433 22.9621C24.5081 23.3257 24.4627 23.7167 24.511 24.1018C24.5592 24.4869 24.6998 24.8544 24.9205 25.1729C25.1412 25.4914 25.4355 25.7514 25.7782 25.9305C26.1209 26.1096 26.5017 26.2025 26.888 26.2013H43.6039C44.0558 26.1997 44.4988 26.327 44.8816 26.5684C45.2643 26.8098 45.571 27.1553 45.7661 27.5649C45.9611 27.9745 46.0365 28.4313 45.9835 28.8822C45.9305 29.3331 45.7512 29.7596 45.4665 30.1122L21.8255 54.5859C21.6481 54.7915 21.4065 54.9305 21.1402 54.98C20.8738 55.0295 20.5987 54.9865 20.3599 54.8582C20.1211 54.7298 19.9328 54.5237 19.8259 54.2737C19.7191 54.0236 19.7 53.7445 19.7718 53.4821L24.3567 39.0379C24.4919 38.6743 24.5373 38.2833 24.489 37.8982C24.4408 37.5131 24.3002 37.1456 24.0795 36.8271C23.8588 36.5086 23.5645 36.2486 23.2218 36.0695C22.8791 35.8904 22.4983 35.7975 22.112 35.7988H5.39613Z" stroke="#4076B9" stroke-width="6" stroke-linecap="round" stroke-linejoin="round"/>
</svg>
